<svg width="30" height="26" viewBox="0 0 30 26" fill="none" xmlns="http://www.w3.org/2000/svg">
<path d="M7.05682 26L9.75 12.6635L4.77273 11.375L0 23.1652L7.05682 26Z" fill="white"/>
<path d="M7.3125 26L9.71953 12.6635L14.625 11.375V23.1652L7.3125 26Z" fill="#E6E9EE"/>
<path d="M22.75 26L20.0755 12.6635L14.625 11.375V23.1652L22.75 26Z" fill="white"/>
<path d="M22.7813 26L20.3125 12.6635L24.875 11.375L29.25 23.1652L22.7813 26Z" fill="#E6E9EE"/>
<path d="M15.4375 6.65931C15.4375 10.3235 8.51469 19.5 8.51469 19.5C8.51469 19.5 1.625 10.3554 1.625 6.65931C1.625 2.96323 4.70549 0 8.54781 0C12.357 0.0318627 15.4375 2.9951 15.4375 6.65931Z" fill="#FF7058"/>
<path d="M8.53125 10.5625C10.9993 10.5625 13 8.74366 13 6.5C13 4.25634 10.9993 2.4375 8.53125 2.4375C6.06323 2.4375 4.0625 4.25634 4.0625 6.5C4.0625 8.74366 6.06323 10.5625 8.53125 10.5625Z" fill="white"/>
</svg>
